# xmcd
#
# Track frame offsets: 
#        150
#        12989
#        17838
#        38107
#        58941
#        93304
#        116473
#        150227
#        164991
#        195943
#
# Disc length: 3052 seconds
#
# Revision: 2
# Processed by: cddbd v1.5.2PL0 Copyright (c) Steve Scherf et al.
# Submitted via: ExactAudioCopy v1.0b5
#
DISCID=770bea0a
DTITLE=Bonamassa, Joe - Muddy Wolf At Red Rocks CD1
DYEAR=2015
DGENRE=Blues
TTITLE0=We Went Down To The Mississippi Delta
TTITLE1=Muddy Waters Talking
TTITLE2=Tiger In Your Tank
TTITLE3=I Can't Be Satisfied
TTITLE4=You Shook Me
TTITLE5=Stuff You Gotta Watch
TTITLE6=Double Trouble
TTITLE7=Real Love
TTITLE8=My Home Is On The Delta
TTITLE9=All Aboard
EXTD=
EXTT0=
EXTT1=
EXTT2=
EXTT3=
EXTT4=
EXTT5=
EXTT6=
EXTT7=
EXTT8=
EXTT9=
PLAYORDER=
